<svg width="97" height="25" viewBox="0 0 97 25" fill="none" xmlns="http://www.w3.org/2000/svg">
<path d="M15.0044 0.993553L23.9539 24.0064L21.3969 24.0064L12.4474 0.993548L15.0044 0.993553Z" fill="url(#paint0_linear_3_16)"/>
<path d="M4.08095 24.0065H0L8.61193 0.993556H11.1689L20.2207 24.0065H16.0783L13.1327 15.507H7.05729L4.08095 24.0065ZM9.60405 8.26563L7.05729 15.507H13.1327L10.5552 8.26563C10.3711 7.68264 10.1564 7.00759 10.095 6.54734C10.0029 6.97691 9.81883 7.65195 9.60405 8.26563Z" fill="url(#paint1_linear_3_16)"/>
<path d="M28.2973 9.26988C28.2973 5.60104 31.3513 3 35.6485 3C39.9457 3 42.6484 5.40939 42.6484 9.2425H38.2971C38.2971 7.81877 37.2431 6.94263 35.5945 6.94263C33.8107 6.94263 32.6756 7.76401 32.6756 9.10561C32.6756 10.3377 33.2972 10.94 34.7026 11.2412L37.7025 11.8709C41.27 12.6102 42.9727 14.3351 42.9727 17.5385C42.9727 21.4537 39.9457 24 35.3512 24C30.8918 24 28 21.5632 28 17.7575H32.3513C32.3513 19.236 33.4323 20.0574 35.3782 20.0574C37.3512 20.0574 38.5944 19.2634 38.5944 17.9765C38.5944 16.854 38.0809 16.279 36.7566 16.0052L33.7026 15.3755C30.1351 14.6362 28.2973 12.5828 28.2973 9.26988Z" fill="black"/>
<path d="M54.334 9.95437H58.4961V23.6441H54.5772L54.3069 22.1108C53.4691 23.2334 51.7935 24 50.1719 24C47.0909 24 45.199 21.9192 45.199 18.5515V9.95437H49.3611V17.0183C49.3611 19.2634 50.1178 20.249 51.8205 20.249C53.6043 20.249 54.334 19.3181 54.334 17.073V9.95437Z" fill="black"/>
<path d="M65.7814 23.6441H61.6193V9.95437H65.5111L65.7814 11.3781C66.4571 10.4198 67.7814 9.5163 69.7273 9.5163C71.7543 9.5163 73.0515 10.4746 73.8353 11.9257C74.538 10.4746 76.1326 9.5163 78.0785 9.5163C81.5649 9.5163 83.2946 11.5698 83.2946 14.691V23.6441H79.1325V15.8683C79.1325 14.1434 78.2406 13.322 76.9163 13.322C75.7272 13.322 74.538 13.9791 74.538 16.3064V23.6441H70.3759V15.8683C70.3759 14.1708 69.5111 13.3494 68.1868 13.3494C66.9976 13.3494 65.7814 14.0065 65.7814 16.3064V23.6441Z" fill="black"/>
<path d="M97 23.6441H85.6759V20.1395L91.7298 13.4589H85.6759V9.95437H97V13.4589L90.7839 20.1395H97V23.6441Z" fill="black"/>
<defs>
<linearGradient id="paint0_linear_3_16" x1="22.0445" y1="24.9171" x2="29.0339" y2="19.6083" gradientUnits="userSpaceOnUse">
<stop stop-color="#EA580C"/>
<stop offset="0.489583" stop-color="#F59E0B"/>
<stop offset="1" stop-color="#EAB308"/>
</linearGradient>
<linearGradient id="paint1_linear_3_16" x1="0.940961" y1="24.0064" x2="20.1184" y2="2.27205" gradientUnits="userSpaceOnUse">
<stop stop-color="#EA580C"/>
<stop offset="0.489583" stop-color="#F59E0B"/>
<stop offset="1" stop-color="#EAB308"/>
</linearGradient>
</defs>
</svg>
